<svg width="134" height="32" viewBox="0 0 134 32" fill="none" xmlns="http://www.w3.org/2000/svg">
<path d="M34.8516 7.67383V23.582H32.9004V15.4609H29.8242V13.8789H32.9004V7.67383H34.8516ZM21.4922 19.0469C23.9707 17.9219 25.377 15.2148 25.377 12.7188V11.8926H21.9668V10.3281H25.3945V8.00781H27.3457V10.3281H30.668V11.8926H27.3281V12.7188C27.3193 15.1182 28.7607 17.6846 31.2656 18.8008L30.2109 20.2949C28.4004 19.5215 27.0732 17.9307 26.3701 16.0322C25.6758 18.0449 24.3662 19.7412 22.5469 20.5586L21.4922 19.0469ZM43.3086 7.99023C46.8242 7.99023 49.0303 9.1416 49.0391 11.084C49.0303 12.9824 46.8242 14.1162 43.3086 14.1074C39.8281 14.1162 37.5781 12.9824 37.5781 11.084C37.5781 9.1416 39.8281 7.99023 43.3086 7.99023ZM36.084 16.7617V15.1797H50.5684V16.7617H36.084ZM37.7891 23.3711V18.0273H48.8105V23.3711H37.7891ZM39.6172 11.084C39.5996 12.042 40.9883 12.5869 43.3086 12.5957C45.6289 12.5869 47.0176 12.042 47.0176 11.084C47.0176 10.0732 45.6289 9.51953 43.3086 9.51953C40.9883 9.51953 39.5996 10.0732 39.6172 11.084ZM39.7227 21.7891H46.9121V19.5742H39.7227V21.7891ZM57.8652 8.57031C61.2139 8.57031 63.7979 10.3545 63.7891 13.0527C63.7979 15.7861 61.2139 17.5703 57.8652 17.5703C54.5342 17.5703 51.9678 15.7861 51.9766 13.0527C51.9678 10.3545 54.5342 8.57031 57.8652 8.57031ZM50.6406 21.5605V19.9609H65.1602V21.5605H50.6406ZM53.8574 13.0527C53.8486 14.8545 55.5537 15.9619 57.8652 15.9707C60.1855 15.9619 61.873 14.8545 61.873 13.0527C61.873 11.2949 60.1855 10.1348 57.8652 10.1523C55.5537 10.1348 53.8486 11.2949 53.8574 13.0527ZM79.7168 20.1016V21.7188H65.1973V20.1016H71.4551V17.5176H66.9199V12.3145H76.0605V10.3457H66.8848V8.76367H77.9941V13.8613H68.8711V15.918H78.3633V17.5176H73.3887V20.1016H79.7168Z" fill="white"/>
<path d="M10 9L4 15.5L10 22" stroke="white" stroke-width="2" stroke-linecap="round" stroke-linejoin="round"/>
</svg>
