<svg width="159" height="32" viewBox="0 0 159 32" fill="none" xmlns="http://www.w3.org/2000/svg">
<path d="M52.7773 9.88867C52.7686 10.6973 53.5068 11.7168 54.8779 12.2705C56.2227 11.7256 56.9434 10.7324 56.9434 9.88867V9.81836H55.1855V8.23633H61.127V9.81836H58.9297V9.94141C58.9209 11.0312 59.8789 12.2354 61.7949 12.6836L60.9512 14.1074C59.3955 13.7119 58.376 12.8242 57.8574 11.752C57.3301 12.71 56.3545 13.5361 54.8691 13.8965C53.3838 13.5098 52.4082 12.6748 51.8721 11.7256C51.3623 12.7891 50.3516 13.7031 48.8047 14.1074L47.9785 12.6836C49.8418 12.209 50.835 10.9521 50.8438 9.94141V9.81836H48.5938V8.23633H54.5527V9.81836H52.7773V9.88867ZM47.6445 16.9375V15.373H53.9023V13.9668H55.8359V15.373H62.1289V16.9375H47.6445ZM49.209 19.9082V18.3438H60.3535V23.5645H58.3848V19.9082H49.209ZM68.1953 12.1914C68.1953 14.793 69.7246 17.5352 72.291 18.6074L71.2188 20.1543C69.3379 19.3369 67.9668 17.6758 67.2373 15.6543C66.5078 17.834 65.1104 19.6621 63.2559 20.541L62.1309 19.0117C64.6357 17.8516 66.2002 14.8896 66.209 12.1914V10.8555H62.7109V9.23828H71.6758V10.8555H68.1953V12.1914ZM73.4512 23.5645V7.67383H75.4199V23.5645H73.4512ZM88.0625 9.11523V10.7148H82.7715V18.1152C85.2588 18.0977 87.0078 17.9922 88.9766 17.623L89.1875 19.2051C86.9551 19.6445 85.0303 19.7324 82.0684 19.7324H80.8027V9.11523H88.0625ZM87.2188 14.8633V13.2637H91.4199V7.67383H93.3711V23.582H91.4199V14.8633H87.2188ZM110.391 7.69141V11.1367H112.623V12.7539H110.391V16.6387H108.439V7.69141H110.391ZM98.543 15.6719V8.46484H100.512V14.0635C102.542 14.0371 104.695 13.8525 107.016 13.4043L107.244 15.0039C104.607 15.5312 102.164 15.6719 99.8613 15.6719H98.543ZM100.107 23.3535V17.4121H110.391V23.3535H100.107ZM102.023 21.8066H108.475V18.9414H102.023V21.8066ZM125.686 7.67383V23.5645H123.717V7.67383H125.686ZM112.52 19.1875C116.686 17.21 118.602 14.5205 118.953 10.9082H113.328V9.36133H120.939C120.939 14.0898 119.103 18.1064 113.539 20.752L112.52 19.1875ZM140.242 7.67383V23.5645H138.273V7.67383H140.242ZM127.076 19.1875C131.242 17.21 133.158 14.5205 133.51 10.9082H127.885V9.36133H135.496C135.496 14.0898 133.659 18.1064 128.096 20.752L127.076 19.1875Z" fill="white"/>
<path fill-rule="evenodd" clip-rule="evenodd" d="M21.5553 7C20.7268 7 20.0553 7.67157 20.0553 8.5V15.8934V16.0326C20.0553 16.1219 20.0743 16.2049 20.108 16.2788L18.3074 18.2594C17.883 18.7264 17.9 19.4444 18.3463 19.8906L21.81 23.3544C22.3958 23.9402 23.3456 23.9402 23.9313 23.3544L25.7648 21.5209L29.1737 24.9298C29.3689 25.125 29.6855 25.125 29.8808 24.9298L33.6433 21.1672C33.8386 20.972 33.8386 20.6554 33.6433 20.4601L30.1726 16.9894C30.2668 16.7906 30.3169 16.5716 30.3169 16.3475V8.5C30.3169 7.67157 29.6454 7 28.8169 7H21.5553ZM29.5274 17.7584L26.4719 20.8138L29.5272 23.8691L32.5827 20.8137L29.5274 17.7584ZM21.0553 8.84043V15.2251L23.9332 12.248L21.0553 8.84043ZM21.2796 16.4319C21.2539 16.489 21.2178 16.5447 21.1698 16.5975L19.0474 18.9321C18.982 19.0041 18.9846 19.1147 19.0534 19.1835L22.5171 22.6473C22.7124 22.8425 23.029 22.8425 23.2242 22.6473L25.122 20.7495L29.1705 16.701C29.2643 16.6072 29.3169 16.4801 29.3169 16.3475V8.99605L26.4074 11.9055C26.2122 12.1008 25.8956 12.1008 25.7003 11.9055C25.5051 11.7103 25.5051 11.3937 25.7003 11.1984L28.893 8.00575C28.8682 8.00196 28.8428 8 28.8169 8H21.6544L24.9887 11.9479C25.1543 12.144 25.1446 12.4336 24.9663 12.6181L21.2796 16.4319Z" fill="white"/>
</svg>
