<svg width="85" height="32" viewBox="0 0 85 32" fill="none" xmlns="http://www.w3.org/2000/svg">
<g clip-path="url(#clip0_151_5688)">
<path d="M34.3066 11.541V13.0879H29.7363V14.3008H36.0117V15.8477H21.5273V14.3008H27.7852V13.0879H23.373V8.23633H34.166V9.81836H25.3242V11.541H34.3066ZM23.2324 18.3086V16.8672H34.2012V20.7344H25.166V21.9121H34.6406V23.4062H23.25V19.3633H32.2852V18.3086H23.2324ZM40.3555 8.83398C42.7461 8.83398 44.4688 11.0137 44.4863 14.4414C44.4688 17.8955 42.7461 20.0664 40.3555 20.0664C37.9385 20.0664 36.2158 17.8955 36.2246 14.4414C36.2158 11.0137 37.9385 8.83398 40.3555 8.83398ZM38.1055 14.4414C38.0967 16.8848 39.0195 18.2998 40.3555 18.3086C41.7002 18.2998 42.5967 16.8848 42.6055 14.4414C42.5967 12.0156 41.7002 10.5918 40.3555 10.5918C39.0195 10.5918 38.0967 12.0156 38.1055 14.4414ZM46.5781 23.5645V7.67383H48.5293V13.7734H50.9727V15.4258H48.5293V23.5645H46.5781ZM63.0859 7.67383V13.8789H65.4414V15.5137H63.0859V23.5293H61.1348V7.67383H63.0859ZM50.5527 19.1875C54.4199 17.2539 56.5117 14.5645 56.8984 10.9434H51.4141V9.32617H58.8848C58.876 13.9932 56.9424 18.0977 51.6602 20.6992L50.5527 19.1875ZM78.4688 7.67383V23.5645H76.5V7.67383H78.4688ZM65.3027 19.1875C69.4688 17.21 71.3848 14.5205 71.7363 10.9082H66.1113V9.36133H73.7227C73.7227 14.0898 71.8857 18.1064 66.3223 20.752L65.3027 19.1875Z" fill="white"/>
<path d="M10 9L4 15.5L10 22" stroke="white" stroke-width="2" stroke-linecap="round" stroke-linejoin="round"/>
</g>
<defs>
<clipPath id="clip0_151_5688">
<rect width="85" height="32" fill="white"/>
</clipPath>
</defs>
</svg>
