<svg width="63" height="63" viewBox="0 0 63 63" fill="none" xmlns="http://www.w3.org/2000/svg">
<circle cx="31.5" cy="31.5" r="31.5" transform="matrix(-1 0 0 1 63 0)" fill="#16151A"/>
<path fill-rule="evenodd" clip-rule="evenodd" d="M25.3519 17.625C22.9102 17.625 20.7084 19.5044 20.7084 22.0913V35.4468C20.7084 39.2277 23.7026 42.2892 27.3945 42.2892H30.8743L30.8743 46.3753C30.8743 46.8395 31.4084 47.0876 31.7497 46.7819L36.7654 42.2892H38.2448C40.4799 42.2892 42.2917 40.4344 42.2917 38.1465V25.1166C42.2917 24.3208 41.6615 23.6756 40.8841 23.6756H25.3519C24.2193 23.6756 23.5236 22.8461 23.5236 22.0913C23.5236 21.3365 24.2193 20.5069 25.3519 20.5069H40.8841C41.6615 20.5069 42.2917 19.8618 42.2917 19.066C42.2917 18.2701 41.6615 17.625 40.8841 17.625H25.3519ZM23.5236 26.1942C24.0934 26.4295 24.7145 26.5575 25.3519 26.5575H39.4765V38.1465C39.4765 38.8428 38.9251 39.4073 38.2448 39.4073H27.3945C25.2559 39.4073 23.5236 37.6346 23.5236 35.4468V26.1942Z" fill="white"/>
<path d="M25.5571 34.9168C25.5571 34.2978 26.0473 33.796 26.6519 33.796H29.7799C30.3846 33.796 30.8747 34.2978 30.8747 34.9168C30.8747 35.5357 30.3846 36.0375 29.7799 36.0375H26.6519C26.0473 36.0375 25.5571 35.5357 25.5571 34.9168Z" fill="white"/>
<path d="M25.5571 30.7546C25.5571 30.1357 26.0473 29.6339 26.6519 29.6339H32.5952C33.1998 29.6339 33.69 30.1357 33.69 30.7546C33.69 31.3736 33.1998 31.8754 32.5952 31.8754H26.6519C26.0473 31.8754 25.5571 31.3736 25.5571 30.7546Z" fill="white"/>
</svg>
