<svg width="390" height="309" viewBox="0 0 390 309" fill="none" xmlns="http://www.w3.org/2000/svg">
<path d="M89.4619 94.9514L231.889 181.425V304.353L89.4619 207.282V94.9514Z" fill="#8CACFF"/>
<path d="M157.284 57.6491L312.852 147.09V267.051L157.284 159.383V57.6491Z" fill="#8CACFF"/>
<path d="M272.582 197.109V181.425L287.842 189.055V205.163L272.582 197.109Z" fill="white"/>
<path d="M272.582 219.151V203.467L287.842 211.097V227.205L272.582 219.151Z" fill="white"/>
<path d="M183.803 130.621L166 63.222V0.486267L303.34 74.667V139.522L254.169 171.738L183.803 130.621Z" fill="url(#paint0_linear_144_1946)"/>
<g style="mix-blend-mode:multiply">
<path d="M119.134 77.148L274.702 166.589V286.55L119.134 178.882V77.148Z" fill="#8CACFF"/>
</g>
<g style="mix-blend-mode:multiply">
<path d="M142.024 206.434L92.4291 97.4947L233.584 181.001L142.024 206.434Z" fill="#8CACFF"/>
</g>
<path d="M-11 255.606L91.1575 210.249L232.737 306.473V182.273L143.296 206.858L91.1575 95.7992L119.982 79.6913L274.702 166.589V182.273L287.842 189.055V204.739L274.702 197.109V202.619L287.842 210.249V227.629L274.702 219.575V284.43L116.591 177.61L158.556 155.568V58.073L165.762 62.3119L183.566 130.558L254.779 171.04L303.103 139.672L310.733 144.123V268.746L390 219.575" stroke="#6355FF" stroke-width="4" stroke-linecap="square" stroke-linejoin="round"/>
<defs>
<linearGradient id="paint0_linear_144_1946" x1="234.67" y1="0.486267" x2="234.67" y2="171.738" gradientUnits="userSpaceOnUse">
<stop stop-color="#B3CAFB"/>
<stop offset="1" stop-color="#B7CCFB"/>
</linearGradient>
</defs>
</svg>
