<svg width="94" height="94" viewBox="0 0 94 94" fill="none" xmlns="http://www.w3.org/2000/svg">
<circle cx="47" cy="47" r="47" fill="white"/>
<mask id="mask0_65_2610" style="mask-type:alpha" maskUnits="userSpaceOnUse" x="0" y="0" width="94" height="94">
<circle cx="47" cy="47" r="47" fill="white"/>
</mask>
<g mask="url(#mask0_65_2610)">
<path fill-rule="evenodd" clip-rule="evenodd" d="M63.1965 53.9405C65.9562 50.4355 67.6027 46.0128 67.6027 41.2055C67.6027 29.8269 58.3785 20.6027 46.9999 20.6027C35.6214 20.6027 26.3972 29.8269 26.3972 41.2055C26.3972 46.0128 28.0436 50.4355 30.8034 53.9405C21.2368 59.5208 14.8082 69.8933 14.8082 81.7672C14.8082 99.5462 29.2209 113.959 46.9999 113.959C64.779 113.959 79.1917 99.5462 79.1917 81.7672C79.1917 69.8933 72.7631 59.5208 63.1965 53.9405Z" fill="black"/>
</g>
</svg>
