<svg width="112" height="33" viewBox="0 0 112 33" fill="none" xmlns="http://www.w3.org/2000/svg">
<path d="M51.87 15.9547H47.481V17.1137H53.865V19.1087H38.57V17.1137H44.992V15.9547H40.565V10.8627H51.813V12.8577H43.073V13.9977H51.87V15.9547ZM52.364 27.2407H40.489V22.6997H49.324V21.8827H40.47V19.9257H51.851V24.4477H42.997V25.2077H52.364V27.2407ZM68.3095 10.4257V16.8097H70.6655V18.8617H68.3095V27.3547H65.8015V10.4257H68.3095ZM55.0665 17.6267C55.0665 14.0737 56.7575 11.5087 59.5315 11.5087C62.3245 11.5087 63.9965 14.0737 63.9965 17.6267C63.9965 21.1037 62.3245 23.6877 59.5315 23.6877C56.7575 23.6877 55.0665 21.1227 55.0665 17.6267ZM61.6215 17.6267C61.6215 15.0427 60.7475 13.7317 59.5315 13.7317C58.3725 13.7317 57.4985 15.0427 57.4985 17.6267C57.4985 20.1727 58.3725 21.5027 59.5315 21.5027C60.7475 21.5027 61.6215 20.1727 61.6215 17.6267ZM87.1049 18.8807H84.6729V27.3547H82.1649V10.4257H84.6729V16.8097H87.1049V18.8807ZM80.2839 12.1737C80.1509 17.1327 78.1369 21.4077 72.6269 24.4287L71.2209 22.4527C74.9069 20.7237 77.2819 17.4747 77.6239 14.2447H72.2469V12.1737H80.2839ZM101.967 27.3547H99.4404V10.4257H101.967V27.3547ZM96.8564 12.1737C96.7044 17.1137 94.6904 21.4077 89.1994 24.4287L87.7744 22.4527C91.4794 20.7237 93.8544 17.4747 94.1964 14.2257H88.8194V12.1737H96.8564Z" fill="white"/>
</svg>
