<svg width="108" height="108" viewBox="0 0 108 108" fill="none" xmlns="http://www.w3.org/2000/svg">
<circle cx="54" cy="54" r="54" fill="white"/>
<mask id="mask0_95_2887" style="mask-type:alpha" maskUnits="userSpaceOnUse" x="0" y="0" width="108" height="108">
<circle cx="54" cy="54" r="54" fill="white"/>
</mask>
<g mask="url(#mask0_95_2887)">
<path fill-rule="evenodd" clip-rule="evenodd" d="M72.6087 61.9743C75.7795 57.9472 77.6712 52.8657 77.6712 47.3425C77.6712 34.2692 67.0732 23.6712 53.9999 23.6712C40.9267 23.6712 30.3287 34.2692 30.3287 47.3425C30.3287 52.8657 32.2204 57.9471 35.3911 61.9742C24.3997 68.3856 17.0135 80.3029 17.0135 93.9453C17.0135 114.372 33.5729 130.932 53.9999 130.932C74.4268 130.932 90.9862 114.372 90.9862 93.9453C90.9862 80.3029 83.6001 68.3857 72.6087 61.9743Z" fill="black"/>
</g>
</svg>
