<svg width="112" height="33" viewBox="0 0 112 33" fill="none" xmlns="http://www.w3.org/2000/svg">
<path d="M48.83 21.5217L47.424 23.5357C46.094 22.7377 44.099 20.7427 43.548 19.0897C43.054 20.9137 41.173 23.1177 39.615 23.9537L38.133 22.0347C41.021 20.3247 42.218 17.8357 42.218 14.1497V14.0737H38.969V11.9837H48.07V14.0737H44.802C44.802 17.7407 46.189 20.0967 48.83 21.5217ZM51.87 10.4257V16.8097H54.15V18.8617H51.87V27.3547H49.4V10.4257H51.87ZM70.6465 16.5247H68.2905V20.6097H65.8015V10.4257H68.2905V14.4727H70.6465V16.5247ZM64.7755 19.6027C63.6355 19.9067 60.6335 20.1537 58.5625 20.1537C57.5555 20.1537 56.5675 20.1157 55.5605 20.0967V14.7767H60.5765V13.4467H55.5605V11.4707H63.1415V16.6197H58.0875V18.1587C58.4485 18.1777 58.8285 18.1967 59.2655 18.1967C61.0325 18.1967 63.2175 18.0067 64.5665 17.7027C64.6425 18.3297 64.7185 18.9567 64.7755 19.6027ZM68.4615 24.0867C68.4615 26.1387 66.2385 27.4307 62.6095 27.4307C58.9425 27.4307 56.7575 26.1387 56.7575 24.0867C56.7575 22.0727 58.9425 20.7617 62.6095 20.7617C66.2385 20.7617 68.4615 22.0537 68.4615 24.0867ZM62.6095 22.6997C60.5385 22.6997 59.3415 23.2887 59.3415 24.0867C59.3415 24.8657 60.5385 25.4547 62.6095 25.4547C64.7185 25.4547 65.8775 24.8467 65.8775 24.0867C65.8775 23.3267 64.7185 22.6997 62.6095 22.6997ZM81.1579 16.4297H71.3159V14.4537H81.1579V16.4297ZM73.7479 13.4657V11.4517H78.9729V13.4657H73.7479ZM84.7489 10.4257V17.3037H87.0479V19.3557H84.7489V27.3547H82.2409V10.4257H84.7489ZM72.2089 20.6287C72.2089 18.4247 73.9949 16.9997 76.3319 16.9997C78.6499 16.9997 80.4929 18.4437 80.4929 20.6287C80.4929 22.8327 78.6499 24.2767 76.3319 24.2767C73.9949 24.2767 72.2089 22.8137 72.2089 20.6287ZM74.4319 20.6287C74.4319 21.7497 75.2679 22.4717 76.3319 22.4717C77.3579 22.4717 78.2509 21.7497 78.2509 20.6287C78.2509 19.5267 77.3959 18.7857 76.3319 18.7857C75.2679 18.7857 74.4319 19.5267 74.4319 20.6287ZM101.967 27.3547H99.4404V10.4257H101.967V27.3547ZM96.8564 12.1737C96.7044 17.1137 94.6904 21.4077 89.1994 24.4287L87.7744 22.4527C91.4794 20.7237 93.8544 17.4747 94.1964 14.2257H88.8194V12.1737H96.8564Z" fill="white"/>
<path fill-rule="evenodd" clip-rule="evenodd" d="M24.3235 20.7739C24.7536 20.3715 25.3299 20.1219 25.971 20.1219C27.3183 20.1219 28.4058 21.2005 28.4058 22.5366C28.4058 23.8727 27.3183 24.9512 25.971 24.9512C24.6238 24.9512 23.5363 23.8727 23.5363 22.5366C23.5363 22.3434 23.5687 22.1583 23.6093 21.9812L17.8876 18.6651C17.4493 19.0676 16.8731 19.3171 16.2319 19.3171C14.8847 19.3171 13.7971 18.2385 13.7971 16.9024C13.7971 15.5663 14.8847 14.4878 16.2319 14.4878C16.8731 14.4878 17.4493 14.7373 17.8876 15.1398L23.6093 11.8317C23.5687 11.6546 23.5363 11.4615 23.5363 11.2683C23.5363 9.93219 24.6238 8.85365 25.971 8.85365C27.3183 8.85365 28.4058 9.93219 28.4058 11.2683C28.4058 12.6044 27.3183 13.6829 25.971 13.6829C25.3299 13.6829 24.7455 13.4334 24.3154 13.031L18.5936 16.339C18.6342 16.5241 18.6667 16.7093 18.6667 16.9024C18.6667 17.0956 18.6342 17.2807 18.5936 17.4658L24.3235 20.7739ZM26.7826 11.2683C26.7826 10.8256 26.4174 10.4634 25.971 10.4634C25.5247 10.4634 25.1594 10.8256 25.1594 11.2683C25.1594 11.711 25.5247 12.0732 25.971 12.0732C26.4174 12.0732 26.7826 11.711 26.7826 11.2683ZM16.2319 17.7073C15.7855 17.7073 15.4203 17.3451 15.4203 16.9024C15.4203 16.4598 15.7855 16.0976 16.2319 16.0976C16.6783 16.0976 17.0435 16.4598 17.0435 16.9024C17.0435 17.3451 16.6783 17.7073 16.2319 17.7073ZM25.1594 22.5366C25.1594 22.9793 25.5247 23.3415 25.971 23.3415C26.4174 23.3415 26.7826 22.9793 26.7826 22.5366C26.7826 22.0939 26.4174 21.7317 25.971 21.7317C25.5247 21.7317 25.1594 22.0939 25.1594 22.5366Z" fill="white"/>
</svg>
