<svg width="153" height="22" viewBox="0 0 153 22" fill="none" xmlns="http://www.w3.org/2000/svg">
<path d="M4.60857 17.583H8.71812C9.38347 17.583 10.0293 17.4754 10.6555 17.2601C11.2817 17.0448 11.8394 16.6926 12.3287 16.2034C12.8179 15.6946 13.2093 15.039 13.5028 14.2367C13.7963 13.4343 13.9431 12.4558 13.9431 11.3013C13.9431 10.2445 13.8355 9.29541 13.6202 8.45393C13.4245 7.59288 13.0919 6.85903 12.6222 6.25239C12.1525 5.64574 11.5263 5.18586 10.7435 4.87275C9.98034 4.54007 9.03123 4.37373 7.89621 4.37373H4.60857V17.583ZM0 0.499016H9.04101C10.3913 0.499016 11.6437 0.714278 12.7983 1.1448C13.9725 1.57533 14.9803 2.22111 15.8218 3.08216C16.6828 3.94321 17.3482 5.01952 17.8178 6.31109C18.3071 7.60267 18.5517 9.11929 18.5517 10.861C18.5517 12.3874 18.356 13.7963 17.9646 15.0879C17.5732 16.3795 16.9764 17.4949 16.174 18.4343C15.3912 19.3736 14.403 20.1172 13.2093 20.6652C12.0351 21.1935 10.6457 21.4577 9.04101 21.4577H0V0.499016Z" fill="white"/>
<path d="M25.5735 13.356H31.0039L28.3621 5.66531H28.3034L25.5735 13.356ZM26.0138 0.499016H30.7398L38.5773 21.4577H33.7926L32.2074 16.7904H24.37L22.7261 21.4577H18.0882L26.0138 0.499016Z" fill="white"/>
<path d="M58.1609 21.4577H53.5817L50.0299 7.19171H49.9712L46.478 21.4577H41.8108L36.2629 0.499016H40.8714L44.1884 14.765H44.2471L47.887 0.499016H52.2021L55.7832 14.9411H55.8419L59.2764 0.499016H63.7969L58.1609 21.4577Z" fill="white"/>
<path d="M99.6155 0.499016H115.291V4.37373H104.224V8.86489H114.381V12.4461H104.224V17.583H115.525V21.4577H99.6155V0.499016Z" fill="white"/>
<path d="M131.154 7.54396C131.076 7.01559 130.9 6.53614 130.626 6.10562C130.352 5.65552 130.01 5.26414 129.599 4.93146C129.188 4.59878 128.718 4.34438 128.19 4.16826C127.681 3.97256 127.143 3.87472 126.575 3.87472C125.538 3.87472 124.657 4.0802 123.933 4.49115C123.209 4.88254 122.622 5.42069 122.172 6.10562C121.722 6.77097 121.389 7.53417 121.174 8.39522C120.978 9.25627 120.881 10.1467 120.881 11.0664C120.881 11.947 120.978 12.8081 121.174 13.6496C121.389 14.4715 121.722 15.2151 122.172 15.8805C122.622 16.5458 123.209 17.084 123.933 17.4949C124.657 17.8863 125.538 18.082 126.575 18.082C127.984 18.082 129.08 17.6515 129.863 16.7904C130.665 15.9294 131.154 14.7944 131.331 13.3854H135.792C135.675 14.6965 135.372 15.8805 134.882 16.9372C134.393 17.994 133.747 18.8941 132.945 19.6378C132.143 20.3814 131.203 20.9489 130.127 21.3403C129.051 21.7317 127.867 21.9274 126.575 21.9274C124.971 21.9274 123.522 21.6534 122.231 21.1055C120.959 20.538 119.883 19.765 119.002 18.7865C118.121 17.808 117.446 16.6632 116.977 15.3521C116.507 14.0214 116.272 12.5928 116.272 11.0664C116.272 9.50089 116.507 8.05276 116.977 6.72205C117.446 5.37177 118.121 4.19761 119.002 3.19958C119.883 2.20154 120.959 1.41877 122.231 0.851263C123.522 0.283754 124.971 0 126.575 0C127.73 0 128.816 0.166339 129.834 0.499016C130.871 0.831694 131.79 1.32093 132.593 1.96671C133.415 2.59293 134.09 3.3757 134.618 4.31503C135.147 5.25435 135.479 6.33066 135.616 7.54396H131.154Z" fill="white"/>
<path d="M142.11 4.37373H135.828V0.499016H153V4.37373H146.718V21.4577H142.11V4.37373Z" fill="white"/>
<rect x="65.1289" y="0.458618" width="4.58655" height="21.0981" fill="white"/>
<rect x="78.8887" y="0.458618" width="4.58655" height="21.0981" fill="white"/>
<path d="M83.4753 0.458618H88.0619L92.6484 21.5568H88.0619L83.4753 0.458618Z" fill="white"/>
<path d="M69.7156 0.458618H74.3021L78.8887 21.5568H74.3021L69.7156 0.458618Z" fill="white"/>
<rect x="92.6484" y="0.458618" width="4.58655" height="21.0981" fill="white"/>
</svg>
