<svg width="159" height="41" viewBox="0 0 159 41" fill="none" xmlns="http://www.w3.org/2000/svg">
<path d="M56.0488 11.2949C56.04 12.1035 56.7783 13.123 58.1494 13.6768C59.4941 13.1318 60.2148 12.1387 60.2148 11.2949V11.2246H58.457V9.64258H64.3984V11.2246H62.2012V11.3477C62.1924 12.4375 63.1504 13.6416 65.0664 14.0898L64.2227 15.5137C62.667 15.1182 61.6475 14.2305 61.1289 13.1582C60.6016 14.1162 59.626 14.9424 58.1406 15.3027C56.6553 14.916 55.6797 14.0811 55.1436 13.1318C54.6338 14.1953 53.623 15.1094 52.0762 15.5137L51.25 14.0898C53.1133 13.6152 54.1064 12.3584 54.1152 11.3477V11.2246H51.8652V9.64258H57.8242V11.2246H56.0488V11.2949ZM50.916 18.3438V16.7793H57.1738V15.373H59.1074V16.7793H65.4004V18.3438H50.916ZM52.4805 21.3145V19.75H63.625V24.9707H61.6562V21.3145H52.4805ZM71.4668 13.5977C71.4668 16.1992 72.9961 18.9414 75.5625 20.0137L74.4902 21.5605C72.6094 20.7432 71.2383 19.082 70.5088 17.0605C69.7793 19.2402 68.3818 21.0684 66.5273 21.9473L65.4023 20.418C67.9072 19.2578 69.4717 16.2959 69.4805 13.5977V12.2617H65.9824V10.6445H74.9473V12.2617H71.4668V13.5977ZM76.7227 24.9707V9.08008H78.6914V24.9707H76.7227ZM95.8867 9.09766V13.7207H98.0312V15.3379H95.8867V19.8379H93.9355V9.09766H95.8867ZM83.1602 17.9395C84.3555 17.9395 85.7354 17.9307 87.168 17.8955V16.9199C85.4014 16.7002 84.2764 15.8477 84.2852 14.5996C84.2764 13.1318 85.8145 12.2354 88.1172 12.2441C90.4287 12.2354 91.9492 13.1318 91.9492 14.5996C91.9492 15.8389 90.8594 16.6826 89.1191 16.9111V17.8252C90.4727 17.7549 91.835 17.6494 93.1094 17.4824L93.2676 18.8359C89.8838 19.4336 86.166 19.4688 83.3711 19.4688L83.1602 17.9395ZM83.5645 11.7871V10.3457H87.168V8.95703H89.1191V10.3457H92.6875V11.7871H83.5645ZM85.1641 22.0527V20.5234H95.8867V24.9707H93.9355V22.0527H85.1641ZM86.166 14.5996C86.1484 15.2588 86.8867 15.6719 88.1172 15.6543C89.3477 15.6719 90.0859 15.2588 90.0859 14.5996C90.0859 13.9053 89.3477 13.5537 88.1172 13.5625C86.8867 13.5537 86.1484 13.9053 86.166 14.5996ZM111.094 9.09766V20.5762H109.125V9.09766H111.094ZM98.1387 14.1074C98.1387 11.7959 100.011 10.1436 102.428 10.1348C104.845 10.1436 106.708 11.7959 106.699 14.1074C106.708 16.4541 104.845 18.0977 102.428 18.0977C100.011 18.0977 98.1387 16.4541 98.1387 14.1074ZM100.055 14.1074C100.046 15.5137 101.065 16.3926 102.428 16.3926C103.755 16.3926 104.783 15.5137 104.783 14.1074C104.783 12.7363 103.755 11.8398 102.428 11.8398C101.065 11.8398 100.046 12.7363 100.055 14.1074ZM100.582 24.6543V19.416H102.551V23.0723H111.533V24.6543H100.582ZM124.859 9.08008V15.4082H127.303V17.0254H124.859V24.9707H122.926V9.08008H124.859ZM112.326 13.0879V11.5234H116.088V9.30859H118.039V11.5234H121.695V13.0879H112.326ZM113.064 17.8691C113.047 15.6719 114.752 14.1162 117.072 14.125C119.357 14.1162 121.054 15.6719 121.062 17.8691C121.054 20.0576 119.357 21.5957 117.072 21.5957C114.752 21.5957 113.047 20.0576 113.064 17.8691ZM114.928 17.8691C114.919 19.1611 115.824 19.9873 117.072 19.9785C118.294 19.9873 119.182 19.1611 119.199 17.8691C119.182 16.5771 118.294 15.7246 117.072 15.7246C115.824 15.7246 114.919 16.5771 114.928 17.8691ZM140.242 9.08008V24.9707H138.273V9.08008H140.242ZM127.076 20.5938C131.242 18.6162 133.158 15.9268 133.51 12.3145H127.885V10.7676H135.496C135.496 15.4961 133.659 19.5127 128.096 22.1582L127.076 20.5938Z" fill="white"/>
<path fill-rule="evenodd" clip-rule="evenodd" d="M24.5553 7C23.7268 7 23.0553 7.67157 23.0553 8.5V15.8934V16.0326C23.0553 16.1219 23.0743 16.2049 23.108 16.2788L21.3074 18.2594C20.883 18.7264 20.9 19.4444 21.3463 19.8906L24.81 23.3544C25.3958 23.9402 26.3456 23.9402 26.9313 23.3544L28.7648 21.5209L32.1737 24.9298C32.3689 25.125 32.6855 25.125 32.8808 24.9298L36.6433 21.1672C36.8386 20.972 36.8386 20.6554 36.6433 20.4601L33.1726 16.9894C33.2668 16.7906 33.3169 16.5716 33.3169 16.3475V8.5C33.3169 7.67157 32.6454 7 31.8169 7H24.5553ZM32.5274 17.7584L29.4719 20.8138L32.5272 23.8691L35.5827 20.8137L32.5274 17.7584ZM24.0553 8.84043V15.2251L26.9332 12.248L24.0553 8.84043ZM24.2796 16.4319C24.2539 16.489 24.2178 16.5447 24.1698 16.5975L22.0474 18.9321C21.982 19.0041 21.9846 19.1147 22.0534 19.1835L25.5171 22.6473C25.7124 22.8425 26.029 22.8425 26.2242 22.6473L28.122 20.7495L32.1705 16.701C32.2643 16.6072 32.3169 16.4801 32.3169 16.3475V8.99605L29.4074 11.9055C29.2122 12.1008 28.8956 12.1008 28.7003 11.9055C28.5051 11.7103 28.5051 11.3937 28.7003 11.1984L31.893 8.00575C31.8682 8.00196 31.8428 8 31.8169 8H24.6544L27.9887 11.9479C28.1543 12.144 28.1446 12.4336 27.9663 12.6181L24.2796 16.4319Z" fill="white"/>
</svg>
