<svg width="39" height="39" viewBox="0 0 39 39" fill="none" xmlns="http://www.w3.org/2000/svg">
<path fill-rule="evenodd" clip-rule="evenodd" d="M12.1187 4C11.2902 4 10.6187 4.67157 10.6187 5.5V19V19.2405C10.6187 19.4247 10.6914 19.5847 10.8055 19.7012L7.39009 23.4581C6.85149 24.0506 6.87317 24.9616 7.43934 25.5278L14.058 32.1464C14.6438 32.7322 15.5935 32.7322 16.1793 32.1464L19.9722 28.3536L20.1187 28.2071L26.2651 34.3536C26.4604 34.5488 26.777 34.5488 26.9722 34.3536L33.4722 27.8536C33.6675 27.6583 33.6675 27.3417 33.4722 27.1464L27.3156 20.9898C27.5111 20.731 27.6187 20.4139 27.6187 20.0858V5.5C27.6187 4.67157 26.9471 4 26.1187 4H12.1187ZM26.6187 21.7071L20.8258 27.5L26.6187 33.2929L32.4116 27.5L26.6187 21.7071ZM11.6487 5.32891C11.7186 5.13703 11.9026 5 12.1187 5H26.1187C26.2097 5 26.2951 5.02434 26.3686 5.06687C26.3316 5.08826 26.2968 5.11479 26.2651 5.14645L20.2651 11.1464C20.0698 11.3417 20.0698 11.6583 20.2651 11.8536C20.4604 12.0488 20.7769 12.0488 20.9722 11.8536L26.6187 6.20711V20.0858C26.6187 20.2184 26.566 20.3456 26.4722 20.4393L19.2651 27.6464L15.4722 31.4393C15.2769 31.6346 14.9604 31.6346 14.7651 31.4393L8.14645 24.8207C7.95772 24.632 7.9505 24.3283 8.13003 24.1308L11.9111 19.9716C11.9793 19.8966 12.0261 19.8162 12.0544 19.7342L18.4782 13.0889C18.6655 12.8951 18.6655 12.5877 18.4782 12.3939L11.6487 5.32891ZM11.6187 18.7461L17.4232 12.7414L11.6187 6.73664V18.7461Z" fill="white"/>
</svg>
