<svg width="27" height="31" viewBox="0 0 27 31" fill="none" xmlns="http://www.w3.org/2000/svg">
<path fill-rule="evenodd" clip-rule="evenodd" d="M5.11866 0C4.29023 0 3.61866 0.671573 3.61866 1.5V15V15.2405C3.61866 15.4247 3.69139 15.5847 3.80546 15.7012L0.390092 19.4581C-0.148509 20.0506 -0.126831 20.9616 0.439342 21.5278L7.058 28.1464C7.64379 28.7322 8.59353 28.7322 9.17932 28.1464L12.9722 24.3536L13.1187 24.2071L19.2651 30.3536C19.4604 30.5488 19.7769 30.5488 19.9722 30.3536L26.4722 23.8536C26.6675 23.6583 26.6675 23.3417 26.4722 23.1464L20.3156 16.9898C20.5111 16.731 20.6187 16.4139 20.6187 16.0858V1.5C20.6187 0.671573 19.9471 0 19.1187 0H5.11866ZM19.6187 17.7071L13.8258 23.5L19.6187 29.2929L25.4116 23.5L19.6187 17.7071ZM4.6487 1.32891C4.71857 1.13703 4.90261 1 5.11866 1H19.1187C19.2097 1 19.2951 1.02434 19.3686 1.06687C19.3316 1.08826 19.2968 1.11479 19.2651 1.14645L13.2651 7.14645C13.0698 7.34171 13.0698 7.65829 13.2651 7.85355C13.4604 8.04882 13.7769 8.04882 13.9722 7.85355L19.6187 2.20711V16.0858C19.6187 16.2184 19.566 16.3456 19.4722 16.4393L12.2651 23.6464L8.47221 27.4393C8.27695 27.6346 7.96037 27.6346 7.76511 27.4393L1.14645 20.8207C0.957725 20.632 0.950498 20.3283 1.13003 20.1308L4.91111 15.9716C4.97932 15.8966 5.02612 15.8162 5.05438 15.7342L11.4782 9.08889C11.6655 8.89509 11.6655 8.58767 11.4782 8.39387L4.6487 1.32891ZM4.61866 14.7461L10.4232 8.74138L4.61866 2.73664V14.7461Z" fill="#2E3851"/>
</svg>
